<svg width="24" height="24" viewBox="0 0 28 28" fill="none" xmlns="http://www.w3.org/2000/svg">
<path fill-rule="evenodd" clip-rule="evenodd" d="M26 3.26223C26 3.95986 25.4883 4.52539 24.8571 4.52539L3.14286 4.52539C2.51167 4.52539 2 3.95986 2 3.26223C2 2.56461 2.51167 1.99907 3.14286 1.99907L24.8571 1.99907C25.4883 1.99907 26 2.56461 26 3.26223Z" fill="white"/>
<path fill-rule="evenodd" clip-rule="evenodd" d="M26 12.104C26 12.8017 25.4883 13.3672 24.8571 13.3672L3.14286 13.3672C2.51167 13.3672 2 12.8017 2 12.104C2 11.4064 2.51167 10.8409 3.14286 10.8409L24.8571 10.8409C25.4883 10.8409 26 11.4064 26 12.104Z" fill="white"/>
<path fill-rule="evenodd" clip-rule="evenodd" d="M26 20.9478C26 21.6454 25.4883 22.2109 24.8571 22.2109H18C17.3688 22.2109 16.8571 21.6454 16.8571 20.9478C16.8571 20.2502 17.3688 19.6846 18 19.6846H24.8571C25.4883 19.6846 26 20.2502 26 20.9478Z" fill="white"/>
<path fill-rule="evenodd" clip-rule="evenodd" d="M7.30713 16.2435C6.88831 15.7782 6.20928 15.7782 5.79046 16.2435L2.31495 20.1047C1.89613 20.57 1.89613 21.3244 2.31495 21.7896L5.79046 25.6508C6.20928 26.1161 6.88831 26.1161 7.30713 25.6508C7.72594 25.1855 7.72594 24.4312 7.30713 23.9659L5.66239 22.1386L13.4998 22.1386C14.0921 22.1386 14.5723 21.6052 14.5723 20.9472C14.5723 20.2891 14.0921 19.7557 13.4998 19.7557L5.66239 19.7557L7.30713 17.9285C7.72594 17.4632 7.72594 16.7088 7.30713 16.2435Z" fill="white"/>
</svg>
