<svg width="24" height="24" viewBox="0 0 24 24" fill="none" xmlns="http://www.w3.org/2000/svg">
<path fill-rule="evenodd" clip-rule="evenodd" d="M0 22.7368C0 22.0392 0.511675 21.4736 1.14286 21.4736H22.8571C23.4883 21.4736 24 22.0392 24 22.7368C24 23.4344 23.4883 23.9999 22.8571 23.9999H1.14286C0.511675 23.9999 0 23.4344 0 22.7368Z"/>
<path fill-rule="evenodd" clip-rule="evenodd" d="M0 13.895C0 13.1974 0.511675 12.6318 1.14286 12.6318H22.8571C23.4883 12.6318 24 13.1974 24 13.895C24 14.5926 23.4883 15.1582 22.8571 15.1582H1.14286C0.511675 15.1582 0 14.5926 0 13.895Z"/>
<path fill-rule="evenodd" clip-rule="evenodd" d="M0 5.05222C0 4.3546 0.511675 3.78906 1.14286 3.78906L8 3.78906C8.63118 3.78906 9.14286 4.3546 9.14286 5.05222C9.14286 5.74984 8.63118 6.31538 8 6.31538H1.14286C0.511675 6.31538 0 5.74984 0 5.05222Z"/>
<path fill-rule="evenodd" clip-rule="evenodd" d="M18.6948 9.7565C19.1136 10.2218 19.7927 10.2218 20.2115 9.7565L23.687 5.89532C24.1058 5.43003 24.1058 4.67564 23.687 4.21035L20.2115 0.349174C19.7927 -0.116117 19.1136 -0.116117 18.6948 0.349174C18.276 0.814464 18.276 1.56885 18.6948 2.03414L20.3396 3.86139L12.5021 3.86139C11.9098 3.86139 11.4297 4.39482 11.4297 5.05284C11.4297 5.71086 11.9098 6.24429 12.5021 6.24429L20.3396 6.24429L18.6948 8.07154C18.276 8.53683 18.276 9.29121 18.6948 9.7565Z"/>
</svg>