<svg width="28" height="29" viewBox="0 0 28 29" fill="none" xmlns="http://www.w3.org/2000/svg">
<path d="M11.3835 4.82063L10.4578 3.22034C10.311 2.96661 10.0695 2.78151 9.78632 2.70565C9.50316 2.6298 9.20147 2.66942 8.94748 2.81578L6.06148 4.47864C5.9355 4.55111 5.82505 4.64767 5.73644 4.76287C5.64783 4.87807 5.5828 5.0096 5.54507 5.14996C5.50734 5.29031 5.49763 5.43673 5.51653 5.58083C5.53543 5.72493 5.58255 5.86391 5.6552 5.98978L6.58092 7.59603C6.69131 7.79489 6.73915 8.02242 6.7182 8.24888C6.69725 8.47535 6.60849 8.69025 6.4635 8.86548C5.91266 9.56717 5.46418 10.3435 5.13149 11.1712C5.05161 11.3829 4.90993 11.5658 4.72484 11.696C4.53974 11.8263 4.31977 11.8978 4.09349 11.9015H2.24721C1.95373 11.9015 1.67227 12.018 1.46475 12.2256C1.25723 12.4331 1.14062 12.7146 1.14062 13.0081V16.3278C1.14062 16.6212 1.25723 16.9027 1.46475 17.1102C1.67227 17.3177 1.95373 17.4343 2.24721 17.4343H4.09349C4.31977 17.438 4.53974 17.5096 4.72484 17.6398C4.90993 17.77 5.05161 17.9529 5.13149 18.1646C5.46418 18.9923 5.91266 19.7686 6.4635 20.4703C6.60849 20.6456 6.69725 20.8605 6.7182 21.0869C6.73915 21.3134 6.69131 21.5409 6.58092 21.7398L5.6552 23.346C5.58255 23.4719 5.53543 23.6109 5.51653 23.755C5.49763 23.8991 5.50734 24.0455 5.54507 24.1859C5.5828 24.3262 5.64783 24.4577 5.73644 24.5729C5.82505 24.6881 5.9355 24.7847 6.06148 24.8572L8.94748 26.52C9.20158 26.6663 9.50333 26.7058 9.7865 26.6298C10.0697 26.5538 10.3111 26.3685 10.4578 26.1146L11.3835 24.5152C11.4887 24.3271 11.6477 24.1747 11.8402 24.0777C12.0326 23.9807 12.2497 23.9435 12.4635 23.9709C13.3931 24.1066 14.3376 24.1066 15.2672 23.9709C15.481 23.9434 15.6981 23.9805 15.8906 24.0775C16.0831 24.1745 16.2421 24.327 16.3472 24.5152L17.2729 26.1146C17.4196 26.3685 17.661 26.5538 17.9442 26.6298C18.2274 26.7058 18.5291 26.6663 18.7832 26.52L21.6692 24.8572C21.7952 24.7847 21.9056 24.6881 21.9942 24.5729C22.0829 24.4577 22.1479 24.3262 22.1856 24.1859C22.2234 24.0455 22.2331 23.8991 22.2142 23.755C22.1953 23.6109 22.1481 23.4719 22.0755 23.346L21.1498 21.7398C21.0394 21.5409 20.9916 21.3134 21.0125 21.0869C21.0335 20.8605 21.1222 20.6456 21.2672 20.4703C21.8181 19.7686 22.2665 18.9923 22.5992 18.1646C22.6791 17.9529 22.8208 17.77 23.0059 17.6398C23.1909 17.5096 23.4109 17.438 23.6372 17.4343H25.4843C25.7778 17.4343 26.0593 17.3177 26.2668 17.1102C26.4743 16.9027 26.5909 16.6212 26.5909 16.3278V13.0081C26.5909 12.7146 26.4743 12.4331 26.2668 12.2256C26.0593 12.018 25.7778 11.9015 25.4843 11.9015H23.6381C23.4118 11.8978 23.1918 11.8263 23.0067 11.696C22.8216 11.5658 22.6799 11.3829 22.6001 11.1712C22.2674 10.3435 21.8189 9.56717 21.2681 8.86548C21.1231 8.69025 21.0343 8.47535 21.0134 8.24888C20.9924 8.02242 21.0402 7.79489 21.1506 7.59603L22.0764 5.98978C22.149 5.86391 22.1961 5.72493 22.215 5.58083C22.2339 5.43673 22.2242 5.29031 22.1865 5.14996C22.1487 5.0096 22.0837 4.87807 21.9951 4.76287C21.9065 4.64767 21.796 4.55111 21.6701 4.47864L18.7841 2.81578C18.5301 2.66942 18.2284 2.6298 17.9452 2.70565C17.6621 2.78151 17.4206 2.96661 17.2738 3.22034L16.3481 4.82063C16.2431 5.00892 16.0841 5.16139 15.8916 5.25841C15.699 5.35543 15.4819 5.39255 15.2681 5.36492C14.3384 5.22921 13.394 5.22921 12.4643 5.36492C12.2504 5.3925 12.0332 5.35536 11.8405 5.25835C11.6479 5.16135 11.4887 5.00891 11.3835 4.82063Z" stroke="white" stroke-width="1.5" stroke-linecap="round" stroke-linejoin="round"/>
<path d="M13.8629 19.093C16.307 19.093 18.2884 17.1117 18.2884 14.6676C18.2884 12.2235 16.307 10.2422 13.8629 10.2422C11.4188 10.2422 9.4375 12.2235 9.4375 14.6676C9.4375 17.1117 11.4188 19.093 13.8629 19.093Z" stroke="white" stroke-width="1.5" stroke-linecap="round" stroke-linejoin="round"/>
</svg>
